<svg width="375" height="229" viewBox="0 0 375 229" fill="none" xmlns="http://www.w3.org/2000/svg">
<path fill-rule="evenodd" clip-rule="evenodd" d="M0 228.189L374.883 228.188L374.884 74.9538L374.886 74.9538L374.887 -0.000244141L374.73 -0.000228868C372.13 41.7547 337.501 74.8317 295.12 74.9532L80.0003 74.9532C35.8175 74.9532 0.000239518 110.77 0.000149391 154.953L0 228.189Z" fill="url(#paint0_linear)"/>
<g opacity="0.45">
<path d="M38.2847 186.389H22.8002C21.7024 186.389 20.8936 185.192 20.8936 183.756C20.8936 182.24 21.7602 181.123 22.8002 181.123H38.2847C39.3824 181.123 40.1913 182.32 40.1913 183.756C40.1913 185.192 39.3247 186.389 38.2847 186.389Z" fill="#FAF0D7"/>
<path d="M38.2843 191.655H22.2221C21.1243 191.655 20.3154 190.458 20.3154 189.022C20.3154 187.506 21.1821 186.389 22.2221 186.389H38.2843C39.3821 186.389 40.191 187.586 40.191 189.022C40.191 190.458 39.3243 191.655 38.2843 191.655Z" fill="#FAF0D7"/>
<path d="M38.2843 196.841H22.2221C21.1821 196.841 20.3154 195.724 20.3154 194.208V194.129C20.3154 192.692 21.1243 191.496 22.2221 191.496H38.2843C39.3243 191.496 40.191 192.613 40.191 194.129V194.208C40.191 195.724 39.3243 196.841 38.2843 196.841Z" fill="#FAF0D7"/>
<path d="M38.2843 202.187H22.2221C21.1821 202.187 20.3154 201.07 20.3154 199.554V199.474C20.3154 198.038 21.1243 196.841 22.2221 196.841H38.2843C39.3243 196.841 40.191 197.958 40.191 199.474V199.554C40.191 200.911 39.3243 202.187 38.2843 202.187Z" fill="#FAF0D7"/>
<path d="M38.2843 207.373H22.2221C21.1821 207.373 20.3154 206.256 20.3154 204.74C20.3154 203.304 21.1243 202.107 22.2221 202.107H38.2843C39.3243 202.107 40.191 203.224 40.191 204.74C40.191 206.177 39.3243 207.373 38.2843 207.373Z" fill="#FAF0D7"/>
<path d="M38.2843 212.64H22.2221C21.1821 212.64 20.3154 211.523 20.3154 210.007C20.3154 208.57 21.1243 207.374 22.2221 207.374H38.2843C39.3243 207.374 40.191 208.491 40.191 210.007C40.191 211.443 39.3243 212.64 38.2843 212.64Z" fill="#FAF0D7"/>
<path d="M29.2133 149.128H34.5867C34.5867 149.128 38.8044 150.245 38.8044 155.91C38.8044 161.575 34.6444 162.931 34.6444 162.931V171.548L38.2844 181.123H23.2622L26.2089 173.304V161.894C26.2089 161.894 23.5511 160.139 23.5511 155.83C23.5511 150.564 26.2667 149.128 29.2133 149.128Z" fill="#FAF0D7"/>
<path d="M27.7111 167.639L29.8489 173.304C29.8489 173.304 30.3689 177.293 27.7111 177.453C25.0533 177.612 25.3422 173.862 25.3422 173.862L27.7111 167.639Z" fill="white"/>
<path d="M30.8311 145.458H28.52V149.048H30.8311V145.458Z" fill="#FAF0D7"/>
<path d="M35.1066 223.57H24.3021C22.4532 223.57 21.0088 221.575 21.0088 219.022V212.639H38.5155V219.022C38.3999 221.575 36.9555 223.57 35.1066 223.57Z" fill="#FAF0D7"/>
<path d="M27.48 145.458H31.6978V141.787C31.6978 139.793 30.5422 138.197 29.0978 138.197H27.48C27.48 138.117 27.48 145.458 27.48 145.458Z" fill="#FAF0D7"/>
<path d="M31.6398 146.575H23.9554C23.4932 146.575 23.1465 146.016 23.1465 145.458V140.59C23.1465 138.676 24.302 137 25.7465 137H29.8487C31.2932 137 32.4487 138.676 32.4487 140.59V145.458C32.5065 146.096 32.102 146.575 31.6398 146.575ZM24.7065 144.42H30.8309V140.67C30.8309 139.872 30.3687 139.234 29.7909 139.234H25.6887C25.1109 139.234 24.6487 139.872 24.6487 140.67V144.42H24.7065Z" fill="#ED1B2F"/>
<path d="M30.7735 150.245H24.5335C24.0713 150.245 23.7246 149.686 23.7246 149.128V145.457C23.7246 144.819 24.1291 144.34 24.5335 144.34H30.7735C31.2357 144.34 31.5824 144.899 31.5824 145.457V149.128C31.5824 149.766 31.2357 150.245 30.7735 150.245ZM25.3424 148.011H29.9646V146.574H25.3424V148.011Z" fill="#ED1B2F"/>
<path d="M17.6577 181.841C17.5422 181.841 17.4266 181.841 17.2533 181.681C16.8488 181.442 16.7333 180.724 16.9066 180.165L20.1422 172.027V162.851C20.1422 162.213 20.5466 161.734 20.9511 161.734C21.3555 161.734 21.7599 162.293 21.7599 162.851V172.266C21.7599 172.426 21.7022 172.586 21.6444 172.825L18.3511 181.283C18.2355 181.602 17.9466 181.841 17.6577 181.841Z" fill="#ED1B2F"/>
<path d="M37.9377 181.761C37.7066 181.761 37.3599 181.602 37.2443 181.123L33.951 172.666C33.8932 172.506 33.8354 172.346 33.8354 172.107V162.772C33.8354 162.532 33.8932 162.134 34.0666 161.974C34.2399 161.814 34.471 161.655 34.6443 161.655C35.1066 161.655 35.4532 162.213 35.4532 162.772C35.4532 162.852 35.4532 162.931 35.4532 162.931V171.788L38.6888 179.926C38.8621 180.485 38.7466 181.123 38.3421 181.442C38.2266 181.761 38.111 181.761 37.9377 181.761Z" fill="#ED1B2F"/>
<path d="M38.2844 213.756H17.7156C16.2133 213.756 15 212.081 15 210.006C15 207.932 16.2133 206.256 17.7156 206.256H38.2844C39.7867 206.256 41 207.932 41 210.006C41 212.081 39.7289 213.756 38.2844 213.756ZM17.6578 208.411C17.0222 208.411 16.56 209.129 16.56 209.927C16.56 210.804 17.08 211.522 17.6578 211.522H38.2267C38.8622 211.522 39.3822 210.804 39.3822 210.006C39.3822 209.209 38.8622 208.49 38.2267 208.49L17.6578 208.411Z" fill="#ED1B2F"/>
<path d="M38.2844 208.49H17.7156C16.2133 208.49 15 206.815 15 204.74C15 202.666 16.2133 200.99 17.7156 200.99H38.2844C39.7867 200.99 41 202.666 41 204.74C41 206.815 39.7289 208.49 38.2844 208.49ZM17.6578 203.224C17.0222 203.224 16.56 203.942 16.56 204.74C16.56 205.618 17.08 206.336 17.6578 206.336H38.2267C38.8622 206.336 39.3822 205.618 39.3822 204.82C39.3822 204.022 38.8622 203.304 38.2267 203.304L17.6578 203.224Z" fill="#ED1B2F"/>
<path d="M38.2844 203.224H17.7156C16.2133 203.224 15 201.549 15 199.474C15 197.4 16.2133 195.724 17.7156 195.724H38.2844C39.7867 195.724 41 197.4 41 199.474C41 201.549 39.7289 203.224 38.2844 203.224ZM17.6578 197.958C17.0222 197.958 16.56 198.676 16.56 199.474C16.56 200.352 17.08 201.07 17.6578 201.07H38.2267C38.8622 201.07 39.3822 200.352 39.3822 199.554C39.3822 198.756 38.8622 198.038 38.2267 198.038L17.6578 197.958Z" fill="#ED1B2F"/>
<path d="M38.2844 198.038H17.7156C16.2133 198.038 15 196.363 15 194.288C15 192.214 16.2133 190.538 17.7156 190.538H38.2844C39.7867 190.538 41 192.214 41 194.288C41 196.363 39.7289 198.038 38.2844 198.038ZM17.6578 192.692C17.0222 192.692 16.56 193.41 16.56 194.208C16.56 195.086 17.08 195.804 17.6578 195.804H38.2267C38.8622 195.804 39.3822 195.086 39.3822 194.288C39.3822 193.49 38.8622 192.772 38.2267 192.772L17.6578 192.692Z" fill="#ED1B2F"/>
<path d="M38.2844 192.772H17.7156C16.2133 192.772 15 191.097 15 189.022C15 186.948 16.2133 185.272 17.7156 185.272H38.2844C39.7867 185.272 41 186.948 41 189.022C40.9422 191.097 39.7289 192.772 38.2844 192.772ZM17.6578 187.506C17.0222 187.506 16.56 188.224 16.56 189.102C16.56 189.979 17.08 190.618 17.6578 190.618H38.2267C38.8622 190.618 39.3822 189.9 39.3822 189.102C39.3822 188.224 38.8622 187.586 38.2267 187.586L17.6578 187.506Z" fill="#ED1B2F"/>
<path d="M38.2844 187.586H17.7156C16.2133 187.586 15 185.91 15 183.836C15 181.761 16.2133 180.086 17.7156 180.086H38.2844C39.7867 180.086 41 181.761 41 183.836C41 185.91 39.7289 187.586 38.2844 187.586ZM17.6578 182.16C17.0222 182.16 16.56 182.879 16.56 183.756C16.56 184.634 17.08 185.272 17.6578 185.272H38.2267C38.8622 185.272 39.3822 184.554 39.3822 183.756C39.3822 182.958 38.8622 182.24 38.2267 182.24L17.6578 182.16Z" fill="#ED1B2F"/>
<path d="M20.8354 163.649C20.7777 163.649 20.7777 163.649 20.7199 163.649C18.0043 163.011 15.9243 159.819 15.9243 155.91C15.9243 151.601 18.4665 148.09 21.5865 148.09H33.8932C37.0132 148.09 39.5554 151.601 39.5554 155.91C39.5554 159.66 37.591 162.931 34.8177 163.649C34.3554 163.729 34.0088 163.41 33.8354 162.771C33.7777 162.133 34.0088 161.654 34.471 161.415C36.4354 160.936 37.8221 158.622 37.8221 155.91C37.8221 152.798 35.9732 150.245 33.7199 150.245H21.6443C19.391 150.245 17.5421 152.798 17.5421 155.91C17.5421 158.702 18.9865 161.016 20.951 161.415C21.4132 161.495 21.7021 162.133 21.5865 162.612C21.5288 163.33 21.2399 163.649 20.8354 163.649Z" fill="#ED1B2F"/>
<path d="M32.0442 163.889H31.0042C30.542 163.889 30.1953 163.33 30.1953 162.772C30.1953 162.213 30.5998 161.655 31.0042 161.655H32.0442C32.5064 161.655 32.8531 162.213 32.8531 162.772C32.8531 163.41 32.5064 163.889 32.0442 163.889Z" fill="#ED1B2F"/>
<path d="M28.7512 163.889H27.7112C27.249 163.889 26.9023 163.33 26.9023 162.772C26.9023 162.213 27.3068 161.655 27.7112 161.655H28.7512C29.2135 161.655 29.5601 162.213 29.5601 162.772C29.5601 163.33 29.1557 163.889 28.7512 163.889Z" fill="#ED1B2F"/>
<path d="M25.3422 163.889H24.0711C23.6089 163.889 23.2622 163.33 23.2622 162.772C23.2622 162.213 23.6667 161.655 24.0711 161.655H25.3422C25.8044 161.655 26.1511 162.213 26.1511 162.772C26.1511 163.33 25.8044 163.889 25.3422 163.889Z" fill="#ED1B2F"/>
<path d="M34.1819 224.927H21.4708C18.7553 224.927 16.502 221.815 16.502 218.065V212.799C16.502 212.161 16.9064 211.682 17.3108 211.682H38.4575C38.9197 211.682 39.2664 212.241 39.2664 212.799V218.065C39.2086 221.815 36.9553 224.927 34.1819 224.927ZM18.1197 213.836V218.065C18.1197 220.618 19.622 222.693 21.4708 222.693H34.1819C36.0308 222.693 37.5331 220.618 37.5331 218.065V213.836H18.1197Z" fill="#ED1B2F"/>
<path d="M30.0225 174.102C30.0225 175.857 28.9825 177.373 27.6536 177.373C26.3824 177.373 25.2847 175.937 25.2847 174.102C25.2847 172.346 27.6536 167.399 27.6536 167.399C27.6536 167.399 30.0225 172.346 30.0225 174.102Z" fill="#ED1B2F"/>
</g>
<g opacity="0.45">
<path d="M105.723 220.883L106.542 227.382H67.5601L68.4809 220.883V153.534L67.5601 145.328H106.542L105.723 153.534V220.883Z" fill="#F9EFD7"/>
<path d="M73.8013 227.382C73.8013 227.382 67.0486 227.951 67.6625 225.595C68.2763 223.239 68.6856 198.298 68.6856 186.436C68.6856 174.575 68.6856 152.477 68.6856 152.477C68.6856 152.477 66.6393 145.491 67.6625 145.491C68.6856 145.491 92.6271 145.491 92.6271 145.491C92.6271 145.491 88.2276 151.665 79.4286 156.377C72.5735 160.114 75.0291 181.806 75.2337 200.004C75.643 220.964 73.8013 227.382 73.8013 227.382Z" fill="white"/>
<path d="M104.598 221.207H69.5043C68.1742 221.207 67.2534 220.314 67.2534 219.42V153.533C67.2534 152.477 68.3789 151.746 69.5043 151.746H104.7C106.031 151.746 106.951 152.64 106.951 153.533V219.339C106.951 220.314 105.928 221.207 104.598 221.207ZM70.0159 219.014H104.291V153.94H70.0159V219.014Z" fill="#EB1E30"/>
<path d="M104.598 153.94H69.5043C68.2765 153.94 67.2533 153.208 67.0487 152.234L66.0256 146.384C65.9233 145.815 66.1279 145.247 66.6395 144.841C67.0487 144.353 67.7649 144.109 68.4811 144.109H105.417C106.133 144.109 106.849 144.353 107.258 144.841C107.667 145.328 107.974 145.815 107.872 146.384L106.951 152.234C106.849 153.208 105.928 153.94 104.598 153.94ZM69.7089 151.665H104.291L105.11 146.384H68.9927L69.7089 151.665Z" fill="#EB1E30"/>
<path d="M105.621 228.438H68.4812C67.765 228.438 67.0488 228.194 66.6396 227.707C66.2303 227.219 65.9234 226.732 66.0257 226.163L66.9465 220.639C67.0488 219.664 68.1743 218.933 69.4021 218.933H104.598C105.826 218.933 106.849 219.664 107.054 220.639L107.975 226.163C108.077 226.732 107.872 227.3 107.361 227.707C106.849 228.194 106.235 228.438 105.621 228.438ZM68.9928 226.244H105.314L104.496 221.126H69.709L68.9928 226.244Z" fill="#EB1E30"/>
<path d="M80.4519 209.021C80.145 209.021 79.838 208.94 79.6334 208.859C78.9172 208.534 78.8149 207.802 79.3264 207.315C79.3264 207.234 80.4519 206.015 80.4519 203.334C80.4519 202.197 80.145 201.791 79.5311 201.222C78.8149 200.41 77.9964 199.516 77.9964 197.241C77.9964 195.779 78.6102 195.048 79.0195 194.398C79.4288 193.748 79.9403 193.179 79.9403 191.229C79.9403 190.336 79.6334 189.929 79.1218 189.279C78.5079 188.467 77.894 187.573 77.894 185.705C77.894 184.73 78.5079 183.674 79.0195 182.699C79.4288 181.886 79.9403 181.155 79.9403 180.587C79.9403 179.043 79.5311 178.312 79.0195 177.499C78.6102 176.606 77.9964 175.712 77.9964 173.844C77.9964 172.137 79.0195 170.919 79.6334 170.188C80.0426 169.619 80.4519 169.294 80.4519 168.969C80.4519 166.369 79.3264 164.988 79.3264 164.988C78.9172 164.42 79.1218 163.77 79.7357 163.526C80.4519 163.201 81.2704 163.363 81.5774 163.77C81.6797 163.851 83.1121 165.719 83.1121 169.05C83.1121 170.106 82.3959 170.838 81.8843 171.488C81.1681 172.219 80.6565 172.869 80.6565 173.925C80.6565 175.306 80.9635 175.956 81.475 176.768C82.0889 177.662 82.6005 178.718 82.6005 180.668C82.6005 181.643 81.9866 182.699 81.475 183.674C81.0658 184.486 80.5542 185.217 80.5542 185.786C80.5542 187.086 80.9635 187.573 81.475 188.305C82.0889 189.036 82.6005 189.848 82.6005 191.31C82.6005 193.748 81.8843 194.804 81.3727 195.535C81.0658 196.104 80.6565 196.429 80.6565 197.241C80.6565 198.785 81.0658 199.353 81.6797 200.003C82.3959 200.734 83.1121 201.547 83.1121 203.497C83.1121 206.99 81.6797 208.696 81.475 208.859C81.3727 208.859 80.8612 209.021 80.4519 209.021Z" fill="#EC1E31"/>
<path d="M86.6931 209.021C86.3862 209.021 86.0792 208.94 85.8746 208.859C85.1584 208.534 85.0561 207.802 85.5677 207.315C85.5677 207.234 86.6931 206.015 86.6931 203.334C86.6931 202.197 86.3862 201.791 85.7723 201.222C85.0561 200.41 84.2376 199.516 84.2376 197.241C84.2376 195.779 84.8515 195.048 85.2607 194.398C85.67 193.748 86.1815 193.179 86.1815 191.229C86.1815 190.336 85.8746 189.929 85.363 189.279C84.7491 188.467 84.1353 187.573 84.1353 185.705C84.1353 184.73 84.7491 183.674 85.2607 182.699C85.67 181.886 86.1815 181.155 86.1815 180.587C86.1815 179.043 85.7723 178.312 85.2607 177.499C84.8515 176.606 84.2376 175.712 84.2376 173.844C84.2376 172.137 85.2607 170.919 85.8746 170.188C86.2839 169.619 86.6931 169.294 86.6931 168.969C86.6931 166.369 85.5677 164.988 85.5677 164.988C85.1584 164.42 85.363 163.77 85.9769 163.526C86.6931 163.201 87.5116 163.363 87.8186 163.77C87.9209 163.851 89.3533 165.719 89.3533 169.05C89.3533 170.106 88.6371 170.838 88.1255 171.488C87.4093 172.219 86.8977 172.869 86.8977 173.925C86.8977 175.306 87.2047 175.956 87.7163 176.768C88.3301 177.662 88.8417 178.718 88.8417 180.668C88.8417 181.643 88.2278 182.699 87.7163 183.674C87.307 184.486 86.7954 185.217 86.7954 185.786C86.7954 187.086 87.2047 187.573 87.7163 188.305C88.3301 189.036 88.8417 189.848 88.8417 191.31C88.8417 193.748 88.1255 194.804 87.6139 195.535C87.307 196.104 86.8977 196.429 86.8977 197.241C86.8977 198.785 87.307 199.353 87.9209 200.003C88.6371 200.734 89.3533 201.547 89.3533 203.497C89.3533 206.99 87.9209 208.696 87.7163 208.859C87.6139 208.859 87.2047 209.021 86.6931 209.021Z" fill="#EC1E31"/>
<path d="M92.4226 209.021C92.1157 209.021 91.8087 208.94 91.6041 208.859C90.8879 208.534 90.7856 207.802 91.2971 207.315C91.2971 207.234 92.4226 206.015 92.4226 203.334C92.4226 202.197 92.1157 201.791 91.5018 201.222C90.7856 200.41 89.9671 199.516 89.9671 197.241C89.9671 195.779 90.5809 195.048 90.9902 194.398C91.3995 193.748 91.911 193.179 91.911 191.229C91.911 190.336 91.6041 189.929 91.0925 189.279C90.4786 188.467 89.8647 187.573 89.8647 185.705C89.8647 184.73 90.4786 183.674 90.9902 182.699C91.3995 181.886 91.911 181.155 91.911 180.587C91.911 179.043 91.5018 178.312 90.9902 177.499C90.5809 176.606 89.9671 175.712 89.9671 173.844C89.9671 172.137 90.9902 170.919 91.6041 170.188C92.0133 169.619 92.4226 169.294 92.4226 168.969C92.4226 166.369 91.2971 164.988 91.2971 164.988C90.8879 164.42 91.0925 163.77 91.7064 163.526C92.4226 163.201 93.2411 163.363 93.5481 163.77C93.6504 163.851 95.0828 165.719 95.0828 169.05C95.0828 170.106 94.3666 170.838 93.855 171.488C93.1388 172.219 92.6272 172.869 92.6272 173.925C92.6272 175.306 92.9342 175.956 93.4457 176.768C94.0596 177.662 94.5712 178.718 94.5712 180.668C94.5712 181.643 93.9573 182.699 93.4457 183.674C93.0365 184.486 92.5249 185.217 92.5249 185.786C92.5249 187.086 92.9342 187.573 93.4457 188.305C94.0596 189.036 94.5712 189.848 94.5712 191.31C94.5712 193.748 93.855 194.804 93.3434 195.535C93.0365 196.104 92.6272 196.429 92.6272 197.241C92.6272 198.785 93.0365 199.353 93.6504 200.003C94.3666 200.734 95.0828 201.547 95.0828 203.497C95.0828 206.99 93.6504 208.696 93.4457 208.859C93.3434 208.859 92.9342 209.021 92.4226 209.021Z" fill="#EC1E31"/>
<path d="M93.0363 213.408H80.3493C76.8707 213.408 74.0059 211.215 74.0059 208.371V163.282C74.0059 160.52 76.7683 158.245 80.3493 158.245H93.0363C96.515 158.245 99.3798 160.439 99.3798 163.282V208.452C99.2775 211.133 96.4127 213.408 93.0363 213.408ZM80.3493 160.601C78.5077 160.601 76.8707 161.82 76.8707 163.363V208.534C76.8707 209.996 78.4054 211.296 80.3493 211.296H93.0363C94.878 211.296 96.515 210.077 96.515 208.534V163.282C96.515 161.82 94.9803 160.52 93.0363 160.52C93.0363 160.601 80.3493 160.601 80.3493 160.601Z" fill="#EC1E31"/>
</g>
<g opacity="0.45">
<path d="M187.31 221.577H130.157C129.105 221.577 128.295 220.093 128.295 218.474C128.295 217.529 128.781 216.854 129.267 216.854H188.443C189.01 216.854 189.414 217.664 189.414 218.474C189.172 220.093 188.362 221.577 187.31 221.577Z" fill="#FAF0D7"/>
<path d="M188.038 169.362H130.157V216.719H188.038V169.362Z" fill="#FAF0D7"/>
<path d="M129.51 211.188C129.51 211.188 132.748 210.918 134.691 202.418C136.634 193.918 136.795 187.172 141.086 183.799C145.457 180.426 152.986 180.291 156.386 176.648C159.786 173.005 162.053 169.498 162.053 169.498H130.157L129.51 211.188Z" fill="white"/>
<path d="M130.724 169.362H128.376V216.585H130.724V169.362Z" fill="#ED1B2F"/>
<path d="M189.171 169.362H186.824V216.585H189.171V169.362Z" fill="#ED1B2F"/>
<path d="M187.714 171.791H129.752C128.214 171.791 127 169.767 127 167.204V165.99C127 163.426 128.214 161.402 129.752 161.402H187.633C189.171 161.402 190.386 163.426 190.386 165.99V167.204C190.467 169.767 189.171 171.791 187.714 171.791ZM129.752 165.45C129.59 165.45 129.348 165.72 129.348 166.125V167.339C129.348 167.609 129.51 168.013 129.752 168.013H187.633C187.795 168.013 188.038 167.744 188.038 167.339V166.125C188.038 165.855 187.876 165.45 187.633 165.45H129.752Z" fill="#ED1B2F"/>
<path d="M187.714 224.275H129.752C128.214 224.275 127 222.251 127 219.688V218.474C127 215.91 128.214 213.886 129.752 213.886H187.633C189.171 213.886 190.386 215.91 190.386 218.474V219.688C190.467 222.116 189.171 224.275 187.714 224.275ZM129.752 217.799C129.59 217.799 129.348 218.069 129.348 218.474V219.688C129.348 219.958 129.51 220.362 129.752 220.362H187.633C187.795 220.362 188.038 220.093 188.038 219.688V218.474C188.038 218.204 187.876 217.799 187.633 217.799H129.752Z" fill="#ED1B2F"/>
<path d="M187.876 185.688C155.576 176.513 130.076 185.553 129.752 185.688L129.267 181.775C129.59 181.64 155.576 172.466 188.362 181.775L187.876 185.688Z" fill="#ED1B2F"/>
<path d="M158.328 208.49C140.924 208.49 129.347 204.442 129.186 204.442L129.671 200.529C129.995 200.664 155.495 209.704 187.795 200.529L188.2 204.442C177.352 207.41 167.152 208.49 158.328 208.49Z" fill="#ED1B2F"/>
<path d="M167.881 195.942H165.453C164.805 195.942 164.238 194.998 164.238 193.918C164.238 192.839 164.805 191.895 165.453 191.895H167.881C168.529 191.895 169.095 192.839 169.095 193.918C169.095 194.998 168.61 195.942 167.881 195.942Z" fill="#ED1B2F"/>
<path d="M160.272 195.942H157.843C157.196 195.942 156.629 194.998 156.629 193.918C156.629 192.839 157.196 191.895 157.843 191.895H160.272C160.919 191.895 161.486 192.839 161.486 193.918C161.405 194.998 160.919 195.942 160.272 195.942Z" fill="#ED1B2F"/>
<path d="M152.176 195.942H149.181C148.533 195.942 147.967 194.998 147.967 193.918C147.967 192.839 148.533 191.895 149.181 191.895H152.176C152.824 191.895 153.391 192.839 153.391 193.918C153.472 194.998 152.905 195.942 152.176 195.942Z" fill="#ED1B2F"/>
<path d="M177.271 164.505C176.786 164.505 176.3 163.966 176.138 163.291C176.057 163.021 176.057 162.616 176.057 162.347C175.571 162.886 175.086 163.426 174.6 164.101C174.114 164.91 173.386 164.775 172.981 163.966C172.576 163.156 172.657 161.942 173.143 161.132C176.948 156.14 180.752 153.442 182.695 154.251C183.343 154.521 183.828 155.061 183.99 156.005C184.152 156.68 184.152 157.49 183.99 158.029C183.424 160.188 180.186 162.886 177.595 164.64C177.595 164.505 177.352 164.505 177.271 164.505Z" fill="#ED1B2F"/>
</g>
<g opacity="0.5">
<path d="M250.957 164.338C246.826 158.842 246.927 154.191 246.927 154.191L247.33 151.823L248.237 140.999H245.618V137.109H229.499V140.999H226.879L228.39 151.823C228.39 151.823 227.786 155.375 226.879 159.18C226.174 162.985 220.835 179.644 218.719 187.762C216.503 195.88 217.913 208.987 218.719 216.174C219.525 223.362 224.965 223.108 224.965 223.108H260.125C260.125 223.108 262.945 222.516 264.86 220.994C266.774 219.557 267.277 211.101 268.083 198.078C268.889 184.971 255.188 169.75 250.957 164.338ZM259.52 192.159C258.009 192.751 254.886 187.085 249.647 180.658C244.409 174.316 244.409 174.232 244.409 174.232C244.409 174.232 243.502 171.78 245.819 170.849C248.136 170.004 251.058 172.033 254.181 175.5C257.304 178.967 261.031 191.567 259.52 192.159Z" fill="#FAF0D7"/>
</g>
<path opacity="0.45" fill-rule="evenodd" clip-rule="evenodd" d="M244.112 143.2L244.101 143.2H227.855L227.844 143.2L227.832 143.2H226.632L227.44 151.513H244.617L245.324 143.2H244.125L244.112 143.2ZM245.628 138.262V141.06H246.739C247.042 141.06 247.446 141.142 247.648 141.389C247.851 141.636 248.053 141.883 247.952 142.13L247.143 152.665C247.143 152.808 247.106 152.941 247.039 153.059C247.176 155.245 247.555 158.532 248.019 159.591C249.315 162.097 251.194 164.497 253.188 167.045L253.188 167.045L253.188 167.045C253.684 167.678 254.186 168.319 254.688 168.974L255.047 169.428C259.508 175.077 264.556 181.468 267.016 190.044C269.542 198.851 267.319 211.609 265.702 218.358C265.096 220.991 262.165 222.967 258.73 222.967H223.668C220.334 222.967 217.303 220.991 216.696 218.275C215.686 213.749 214.069 204.036 215.686 190.62C216.434 184.071 222.372 167.023 223.656 163.338C223.759 163.04 223.833 162.829 223.87 162.719L225.754 153.588C225.264 153.447 224.89 153.088 224.813 152.583L224.004 142.13C224.004 141.883 224.105 141.554 224.308 141.389C224.51 141.142 224.914 141.06 225.217 141.06H226.429V138.262C226.429 137.686 227.036 137.109 227.844 137.109H244.213C244.92 137.109 245.628 137.603 245.628 138.262ZM242.697 141.06H229.259V139.332H242.697V141.06ZM244.389 153.653H228.352L226.396 163.213V163.295C226.295 163.459 219.121 183.954 218.313 190.867C216.797 204.036 218.313 213.419 219.323 217.946C219.728 219.675 221.546 220.827 223.668 220.827H258.932C261.054 220.827 262.974 219.592 263.277 217.946C264.793 211.362 267.016 199.098 264.59 190.538C262.141 182.319 257.318 176.111 253.067 170.64L252.667 170.126C252.311 169.668 251.956 169.216 251.605 168.769C249.37 165.921 247.281 163.26 245.797 160.414C244.94 159.018 244.563 155.469 244.389 153.653ZM256.204 192.925H256.507C257.619 192.925 258.326 192.596 258.831 192.02C259.437 191.444 259.639 190.538 259.437 189.797L257.72 183.789C256.81 180.991 255.497 178.439 253.577 176.135L250.04 171.855C249.232 170.867 248.02 170.291 246.504 170.126C244.988 170.044 243.473 170.455 242.462 171.279C240.643 172.678 240.542 175.065 242.159 176.711L246.807 181.402C247.817 182.472 248.828 183.624 249.535 184.859L253.678 191.444C254.183 192.349 255.194 192.843 256.204 192.925ZM256.911 190.62C256.81 190.703 256.709 190.785 256.507 190.785C256.45 190.785 256.362 190.733 256.259 190.673C256.179 190.626 256.09 190.574 256.002 190.538L251.859 183.954C251.051 182.637 250.04 181.402 248.929 180.168L244.281 175.476C243.574 174.653 243.574 173.501 244.382 172.925C244.887 172.513 245.696 172.348 246.302 172.431C247.11 172.431 247.615 172.76 248.019 173.172L251.556 177.451C253.375 179.509 254.587 181.814 255.295 184.283L257.012 190.291C257.012 190.388 256.978 190.456 256.949 190.512C256.929 190.552 256.911 190.586 256.911 190.62ZM222.287 216.123C223.701 218.181 225.318 218.593 226.632 218.593H251.791C251.993 218.593 253.812 218.428 255.328 216.946C256.944 215.465 257.349 213.16 256.843 210.033C255.732 203.613 248.053 189.95 244.213 184.106C243.304 182.625 241.283 180.403 241.182 180.32C238.656 177.686 236.231 176.452 233.806 176.534C231.684 176.616 229.663 177.851 227.743 180.073C224.207 184.518 221.478 191.432 220.468 199.168C219.559 206.411 220.165 212.913 222.287 216.123ZM230.067 181.226C231.381 179.497 232.694 178.674 234.21 178.674C235.725 178.674 237.544 179.744 239.161 181.637C239.161 181.637 241.182 183.777 241.99 185.094C245.628 190.691 253.307 204.271 254.418 210.362C254.924 212.831 254.519 214.56 253.61 215.63C252.933 216.25 252.185 216.409 252.019 216.444C251.987 216.45 251.977 216.453 251.993 216.453H226.632C225.924 216.453 225.217 215.959 224.611 215.053C220.67 209.045 222.893 189.785 230.067 181.226Z" fill="#ED1B2F"/>
<g opacity="0.45">
<path d="M353.068 183.941L358.128 183.218L357.744 220.32L352.701 219.388L300.35 218.805L293.963 219.61L294.347 182.508L300.717 183.358L353.068 183.941Z" fill="#F9EFD7"/>
<path d="M357.805 214.38C357.805 214.38 358.18 220.812 356.355 220.208C354.53 219.603 335.147 218.998 325.927 218.895C316.707 218.792 299.531 218.601 299.531 218.601C299.531 218.601 294.08 220.488 294.09 219.514C294.1 218.541 294.336 195.753 294.336 195.753C294.336 195.753 299.092 199.994 302.668 208.41C305.505 214.967 322.39 212.817 336.538 212.78C352.834 212.572 357.805 214.38 357.805 214.38Z" fill="white"/>
<path d="M353.309 185.015L352.963 218.417C352.95 219.683 352.246 220.551 351.551 220.544L300.338 219.973C299.517 219.964 298.959 218.887 298.97 217.816L299.318 184.316C299.331 183.05 300.034 182.182 300.729 182.189L351.88 182.759C352.638 182.767 353.322 183.749 353.309 185.015ZM351.263 217.911L351.601 185.288L301.019 184.725L300.681 217.348L351.263 217.911Z" fill="#EB1E30"/>
<path d="M301.022 184.433L300.676 217.835C300.664 219.003 300.085 219.971 299.325 220.157L294.768 221.08C294.325 221.173 293.885 220.973 293.575 220.483C293.2 220.089 293.017 219.405 293.024 218.723L293.389 183.569C293.396 182.887 293.592 182.207 293.975 181.822C294.358 181.437 294.74 181.149 295.181 181.251L299.719 182.178C300.476 182.284 301.035 183.167 301.022 184.433ZM298.909 217.62L299.251 184.705L295.154 183.88L294.798 218.256L298.909 217.62Z" fill="#EB1E30"/>
<path d="M358.94 184.104L358.574 219.453C358.567 220.135 358.37 220.815 357.987 221.2C357.605 221.585 357.223 221.873 356.782 221.771L352.497 220.847C351.74 220.741 351.183 219.663 351.195 218.495L351.542 184.995C351.554 183.827 352.132 182.859 352.892 182.673L357.195 181.844C357.638 181.752 358.078 181.951 358.389 182.442C358.763 182.933 358.946 183.519 358.94 184.104ZM356.874 218.947L357.232 184.377L353.246 185.112L352.903 218.221L356.874 218.947Z" fill="#EB1E30"/>
<path d="M347.133 195.951L347.008 208.027C346.973 211.338 345.24 214.045 343.03 214.021L307.982 213.631C305.835 213.607 304.094 210.958 304.129 207.549L304.255 195.474C304.289 192.163 306.022 189.455 308.232 189.48L343.343 189.871C345.426 189.991 347.166 192.738 347.133 195.951ZM305.961 207.57C305.943 209.323 306.874 210.891 308.074 210.905L343.184 211.295C344.321 211.308 345.347 209.859 345.366 208.008L345.491 195.933C345.509 194.18 344.578 192.611 343.378 192.598L308.204 192.206C307.067 192.194 306.042 193.643 306.023 195.494C306.086 195.494 305.961 207.57 305.961 207.57Z" fill="#EC1E31"/>
</g>
<circle opacity="0.45" cx="316" cy="201.109" r="4.5" stroke="#EB1E30"/>
<path opacity="0.45" d="M318.095 197.806C319.568 198.53 320.291 201.035 319.259 202.309C318.227 203.583 316.931 203.248 317.143 202.897C317.354 202.546 319.383 199.862 315.978 198.394C315.462 198.171 316.622 197.082 318.095 197.806Z" fill="#ED1B2F"/>
<path opacity="0.45" d="M333.232 206.63C332.611 204.23 334.108 201.699 336.618 201.002C339.129 200.305 341.646 201.721 342.266 204.121C342.887 206.521 341.39 209.052 338.88 209.749C336.369 210.446 333.852 209.03 333.232 206.63Z" stroke="#EB1E30"/>
<path opacity="0.45" d="M338.926 199.741C338.615 198.54 339.363 197.259 340.64 196.904C341.916 196.55 343.182 197.271 343.493 198.473C343.803 199.674 343.055 200.955 341.779 201.31C340.502 201.664 339.236 200.942 338.926 199.741Z" stroke="#EB1E30"/>
<path opacity="0.45" d="M307.226 197.73C306.915 196.528 307.663 195.247 308.94 194.893C310.216 194.538 311.482 195.26 311.792 196.462C312.103 197.663 311.355 198.944 310.079 199.299C308.802 199.653 307.536 198.931 307.226 197.73Z" stroke="#EB1E30"/>
<path opacity="0.45" d="M336.205 208.78C334.602 208.476 333.278 206.25 333.956 204.743C334.635 203.236 335.971 203.211 335.854 203.607C335.738 204.003 334.448 207.14 338.103 207.645C338.658 207.721 337.809 209.085 336.205 208.78Z" fill="#ED1B2F"/>
<defs>
<linearGradient id="paint0_linear" x1="208.937" y1="219.388" x2="68.1165" y2="-335.599" gradientUnits="userSpaceOnUse">
<stop stop-color="#EE3037"/>
<stop offset="0.257842" stop-color="#A20208"/>
<stop offset="0.442708" stop-color="#140001"/>
</linearGradient>
</defs>
</svg>
