<svg width="30" height="30" viewBox="0 0 30 30" fill="none" xmlns="http://www.w3.org/2000/svg">
<circle cx="15" cy="15" r="15" fill="#EE3037"/>
<path d="M14.6505 19.1753C14.5705 19.1753 14.5025 19.1473 14.4465 19.0913C14.3905 19.0353 14.3625 18.9673 14.3625 18.8873V16.5473H12.0585C11.9785 16.5473 11.9105 16.5193 11.8545 16.4633C11.7985 16.4073 11.7705 16.3353 11.7705 16.2473V15.6233C11.7705 15.5353 11.7985 15.4673 11.8545 15.4193C11.9105 15.3633 11.9785 15.3353 12.0585 15.3353H14.3625V13.0553C14.3625 12.9673 14.3905 12.8993 14.4465 12.8513C14.5025 12.7953 14.5705 12.7673 14.6505 12.7673H15.3465C15.4345 12.7673 15.5025 12.7953 15.5505 12.8513C15.6065 12.8993 15.6345 12.9673 15.6345 13.0553V15.3353H17.9385C18.0265 15.3353 18.0945 15.3633 18.1425 15.4193C18.1985 15.4673 18.2265 15.5353 18.2265 15.6233V16.2473C18.2265 16.3353 18.1985 16.4073 18.1425 16.4633C18.0865 16.5193 18.0185 16.5473 17.9385 16.5473H15.6345V18.8873C15.6345 18.9673 15.6065 19.0353 15.5505 19.0913C15.5025 19.1473 15.4345 19.1753 15.3465 19.1753H14.6505Z" fill="#FFFCFC"/>
</svg>
