<svg width="23" height="22" viewBox="0 0 23 22" fill="none" xmlns="http://www.w3.org/2000/svg">
<path d="M7.64914 21.3845C8.48308 21.3845 9.15912 20.7006 9.15912 19.857C9.15912 19.0134 8.48308 18.3296 7.64914 18.3296C6.8152 18.3296 6.13916 19.0134 6.13916 19.857C6.13916 20.7006 6.8152 21.3845 7.64914 21.3845Z" fill="#FFFCFC"/>
<path d="M18.219 21.3845C19.0529 21.3845 19.729 20.7006 19.729 19.857C19.729 19.0134 19.0529 18.3296 18.219 18.3296C17.385 18.3296 16.709 19.0134 16.709 19.857C16.709 20.7006 17.385 21.3845 18.219 21.3845Z" fill="#FFFCFC"/>
<path d="M21.2389 3.81876H4.49318L3.87408 0.611132C3.83879 0.436029 3.74391 0.278992 3.60595 0.167355C3.468 0.0557184 3.29572 -0.00344781 3.11909 0.000155371H0.0991211V1.5276H2.5L5.38407 16.191C5.41937 16.3661 5.51425 16.5232 5.6522 16.6348C5.79015 16.7465 5.96244 16.8056 6.13906 16.802H19.7289V15.2746H6.75816L6.13906 12.2197H19.7289C19.9035 12.224 20.0741 12.167 20.2117 12.0584C20.3494 11.9498 20.4456 11.7963 20.4839 11.624L21.9939 4.7505C22.0192 4.63718 22.0186 4.51952 21.9922 4.40647C21.9658 4.29341 21.9142 4.18795 21.8414 4.09811C21.7686 4.00826 21.6765 3.9364 21.5721 3.88799C21.4677 3.83958 21.3537 3.81591 21.2389 3.81876ZM19.1249 10.6922H5.85217L4.79518 5.3462H20.2952L19.1249 10.6922Z" fill="#FFFCFC"/>
</svg>
