<svg width="24" height="24" viewBox="0 0 24 24" fill="none" xmlns="http://www.w3.org/2000/svg">
<path d="M10.4473 3.22656H3.0994C2.5426 3.22656 2.00861 3.44775 1.6149 3.84146C1.22119 4.23517 1 4.76916 1 5.32596V20.0217C1 20.5785 1.22119 21.1125 1.6149 21.5062C2.00861 21.8999 2.5426 22.1211 3.0994 22.1211H17.7952C18.352 22.1211 18.886 21.8999 19.2797 21.5062C19.6734 21.1125 19.8946 20.5785 19.8946 20.0217V12.6738" stroke="#2C2929" stroke-width="2" stroke-linecap="round" stroke-linejoin="round"/>
<path d="M18.3201 1.6522C18.7376 1.2346 19.304 1 19.8946 1C20.4852 1 21.0515 1.2346 21.4691 1.6522C21.8867 2.06979 22.1213 2.63618 22.1213 3.22675C22.1213 3.81732 21.8867 4.3837 21.4691 4.80129L11.497 14.7734L7.29822 15.8231L8.34792 11.6243L18.3201 1.6522Z" stroke="#2C2929" stroke-width="2" stroke-linecap="round" stroke-linejoin="round"/>
</svg>
