<svg width="64" height="71" viewBox="0 0 64 71" fill="none" xmlns="http://www.w3.org/2000/svg">
<g opacity="0.45">
<path d="M60.3097 67.5767H3.15732C2.10493 67.5767 1.29541 66.0926 1.29541 64.4735C1.29541 63.5291 1.78113 62.8545 2.26684 62.8545H61.443C62.0097 62.8545 62.4145 63.664 62.4145 64.4735C62.1716 66.0926 61.3621 67.5767 60.3097 67.5767Z" fill="#FAF0D7"/>
<path d="M61.0382 15.3623H3.15723V62.7194H61.0382V15.3623Z" fill="#FAF0D7"/>
<path d="M2.50977 57.188C2.50977 57.188 5.74786 56.9182 7.69072 48.4182C9.63358 39.9182 9.79548 33.1722 14.086 29.7991C18.4574 26.4261 25.986 26.2912 29.386 22.6484C32.786 19.0055 35.0526 15.4976 35.0526 15.4976H3.15739L2.50977 57.188Z" fill="white"/>
<path d="M3.7236 15.3623H1.37598V62.5845H3.7236V15.3623Z" fill="#ED1B2F"/>
<path d="M62.1714 15.3623H59.8237V62.5845H62.1714V15.3623Z" fill="#ED1B2F"/>
<path d="M60.7143 17.7912H2.75238C1.21429 17.7912 0 15.7674 0 13.2039V11.9896C0 9.42616 1.21429 7.40234 2.75238 7.40234H60.6333C62.1714 7.40234 63.3857 9.42616 63.3857 11.9896V13.2039C63.4667 15.7674 62.1714 17.7912 60.7143 17.7912ZM2.75238 11.45C2.59048 11.45 2.34762 11.7198 2.34762 12.1246V13.3389C2.34762 13.6087 2.50953 14.0135 2.75238 14.0135H60.6333C60.7952 14.0135 61.0381 13.7436 61.0381 13.3389V12.1246C61.0381 11.8547 60.8762 11.45 60.6333 11.45H2.75238Z" fill="#ED1B2F"/>
<path d="M60.7143 70.2751H2.75238C1.21429 70.2751 0 68.2513 0 65.6878V64.4735C0 61.91 1.21429 59.8862 2.75238 59.8862H60.6333C62.1714 59.8862 63.3857 61.91 63.3857 64.4735V65.6878C63.4667 68.1164 62.1714 70.2751 60.7143 70.2751ZM2.75238 63.7989C2.59048 63.7989 2.34762 64.0688 2.34762 64.4735V65.6878C2.34762 65.9577 2.50953 66.3624 2.75238 66.3624H60.6333C60.7952 66.3624 61.0381 66.0926 61.0381 65.6878V64.4735C61.0381 64.2037 60.8762 63.7989 60.6333 63.7989H2.75238Z" fill="#ED1B2F"/>
<path d="M60.8761 31.6878C28.5761 22.5132 3.07613 31.5529 2.75232 31.6878L2.2666 27.7751C2.59041 27.6402 28.5761 18.4656 61.3618 27.7751L60.8761 31.6878Z" fill="#ED1B2F"/>
<path d="M31.3284 54.4896C13.9236 54.4896 2.34745 50.442 2.18555 50.442L2.67126 46.5293C2.99507 46.6642 28.4951 55.7039 60.7951 46.5293L61.1998 50.442C50.3522 53.4103 40.1522 54.4896 31.3284 54.4896Z" fill="#ED1B2F"/>
<path d="M40.8811 41.9422H38.4526C37.8049 41.9422 37.2383 40.9977 37.2383 39.9183C37.2383 38.839 37.8049 37.8945 38.4526 37.8945H40.8811C41.5288 37.8945 42.0954 38.839 42.0954 39.9183C42.0954 40.9977 41.6097 41.9422 40.8811 41.9422Z" fill="#ED1B2F"/>
<path d="M33.2718 41.9422H30.8432C30.1956 41.9422 29.6289 40.9977 29.6289 39.9183C29.6289 38.839 30.1956 37.8945 30.8432 37.8945H33.2718C33.9194 37.8945 34.486 38.839 34.486 39.9183C34.4051 40.9977 33.9194 41.9422 33.2718 41.9422Z" fill="#ED1B2F"/>
<path d="M25.1763 41.9422H22.1811C21.5335 41.9422 20.9668 40.9977 20.9668 39.9183C20.9668 38.839 21.5335 37.8945 22.1811 37.8945H25.1763C25.8239 37.8945 26.3906 38.839 26.3906 39.9183C26.4716 40.9977 25.9049 41.9422 25.1763 41.9422Z" fill="#ED1B2F"/>
<path d="M50.2713 10.5054C49.7856 10.5054 49.2999 9.96569 49.138 9.29109C49.057 9.02125 49.057 8.61649 49.057 8.34665C48.5713 8.88633 48.0856 9.42601 47.5999 10.1006C47.1142 10.9101 46.3856 10.7752 45.9808 9.96569C45.5761 9.15617 45.657 7.94188 46.1427 7.13236C49.9475 2.14029 53.7523 -0.558115 55.6951 0.251409C56.3427 0.52125 56.8285 1.06093 56.9904 2.00538C57.1523 2.67998 57.1523 3.4895 56.9904 4.02919C56.4237 6.18792 53.1856 8.88633 50.5951 10.6403C50.5951 10.5054 50.3523 10.5054 50.2713 10.5054Z" fill="#ED1B2F"/>
</g>
</svg>
