<svg width="26" height="88" viewBox="0 0 26 88" fill="none" xmlns="http://www.w3.org/2000/svg">
<g opacity="0.45">
<path d="M23.2847 49.3891H7.80022C6.70244 49.3891 5.89355 48.1923 5.89355 46.7561C5.89355 45.2401 6.76022 44.123 7.80022 44.123H23.2847C24.3824 44.123 25.1913 45.3199 25.1913 46.7561C25.1913 48.1923 24.3247 49.3891 23.2847 49.3891Z" fill="#FAF0D7"/>
<path d="M23.2843 54.6552H7.2221C6.12432 54.6552 5.31543 53.4584 5.31543 52.0222C5.31543 50.5062 6.1821 49.3892 7.2221 49.3892H23.2843C24.3821 49.3892 25.191 50.586 25.191 52.0222C25.191 53.4584 24.3243 54.6552 23.2843 54.6552Z" fill="#FAF0D7"/>
<path d="M23.2843 59.8414H7.2221C6.1821 59.8414 5.31543 58.7244 5.31543 57.2084V57.1286C5.31543 55.6924 6.12432 54.4956 7.2221 54.4956H23.2843C24.3243 54.4956 25.191 55.6126 25.191 57.1286V57.2084C25.191 58.7244 24.3243 59.8414 23.2843 59.8414Z" fill="#FAF0D7"/>
<path d="M23.2843 65.1871H7.2221C6.1821 65.1871 5.31543 64.0701 5.31543 62.5541V62.4743C5.31543 61.0381 6.12432 59.8413 7.2221 59.8413H23.2843C24.3243 59.8413 25.191 60.9583 25.191 62.4743V62.5541C25.191 63.9105 24.3243 65.1871 23.2843 65.1871Z" fill="#FAF0D7"/>
<path d="M23.2843 70.3735H7.2221C6.1821 70.3735 5.31543 69.2564 5.31543 67.7404C5.31543 66.3043 6.12432 65.1074 7.2221 65.1074H23.2843C24.3243 65.1074 25.191 66.2245 25.191 67.7404C25.191 69.1766 24.3243 70.3735 23.2843 70.3735Z" fill="#FAF0D7"/>
<path d="M23.2843 75.6396H7.2221C6.1821 75.6396 5.31543 74.5225 5.31543 73.0066C5.31543 71.5704 6.12432 70.3735 7.2221 70.3735H23.2843C24.3243 70.3735 25.191 71.4906 25.191 73.0066C25.191 74.4427 24.3243 75.6396 23.2843 75.6396Z" fill="#FAF0D7"/>
<path d="M14.2133 12.1279H19.5867C19.5867 12.1279 23.8044 13.245 23.8044 18.9099C23.8044 24.5749 19.6444 25.9313 19.6444 25.9313V34.5485L23.2844 44.1231H8.26221L11.2089 36.3038V24.8941C11.2089 24.8941 8.5511 23.1387 8.5511 18.8302C8.5511 13.5641 11.2667 12.1279 14.2133 12.1279Z" fill="#FAF0D7"/>
<path d="M12.7111 30.6387L14.8489 36.3036C14.8489 36.3036 15.3689 40.2931 12.7111 40.4526C10.0533 40.6122 10.3422 36.8622 10.3422 36.8622L12.7111 30.6387Z" fill="white"/>
<path d="M15.8311 8.45752H13.52V12.048H15.8311V8.45752Z" fill="#FAF0D7"/>
<path d="M20.1066 86.5702H9.30212C7.45323 86.5702 6.00879 84.5755 6.00879 82.0222V75.6392H23.5155V82.0222C23.3999 84.5755 21.9555 86.5702 20.1066 86.5702Z" fill="#FAF0D7"/>
<path d="M12.48 8.45768H16.6978V4.78741C16.6978 2.7927 15.5422 1.19693 14.0978 1.19693H12.48C12.48 1.11715 12.48 8.45768 12.48 8.45768Z" fill="#FAF0D7"/>
<path d="M16.6398 9.5746H8.95537C8.49315 9.5746 8.14648 9.01609 8.14648 8.45757V3.59048C8.14648 1.67556 9.30204 0 10.7465 0H14.8487C16.2932 0 17.4487 1.67556 17.4487 3.59048V8.45757C17.5065 9.09588 17.102 9.5746 16.6398 9.5746ZM9.70649 7.42032H15.8309V3.67027C15.8309 2.87238 15.3687 2.23407 14.7909 2.23407H10.6887C10.1109 2.23407 9.64871 2.87238 9.64871 3.67027V7.42032H9.70649Z" fill="#ED1B2F"/>
<path d="M15.7735 13.2447H9.5335C9.07128 13.2447 8.72461 12.6862 8.72461 12.1276V8.45737C8.72461 7.81906 9.12905 7.34033 9.5335 7.34033H15.7735C16.2357 7.34033 16.5824 7.89885 16.5824 8.45737V12.1276C16.5824 12.7659 16.2357 13.2447 15.7735 13.2447ZM10.3424 11.0106H14.9646V9.57441H10.3424C10.3424 9.57441 10.3424 11.0106 10.3424 11.0106Z" fill="#ED1B2F"/>
<path d="M2.65772 44.841C2.54217 44.841 2.42661 44.841 2.25328 44.6815C1.84884 44.4421 1.73328 43.724 1.90661 43.1655L5.14217 35.0271V25.8514C5.14217 25.2131 5.54661 24.7344 5.95106 24.7344C6.3555 24.7344 6.75995 25.2929 6.75995 25.8514V35.2664C6.75995 35.426 6.70217 35.5856 6.64439 35.825L3.35106 44.2825C3.2355 44.6017 2.94661 44.841 2.65772 44.841Z" fill="#ED1B2F"/>
<path d="M22.9377 44.7615C22.7066 44.7615 22.3599 44.6019 22.2443 44.1231L18.951 35.6656C18.8932 35.506 18.8354 35.3464 18.8354 35.1071V25.7718C18.8354 25.5325 18.8932 25.1335 19.0666 24.9739C19.2399 24.8144 19.471 24.6548 19.6443 24.6548C20.1066 24.6548 20.4532 25.2133 20.4532 25.7718C20.4532 25.8516 20.4532 25.9314 20.4532 25.9314V34.7879L23.6888 42.9263C23.8621 43.4848 23.7466 44.1231 23.3421 44.4423C23.2266 44.7615 23.111 44.7615 22.9377 44.7615Z" fill="#ED1B2F"/>
<path d="M23.2844 76.7565H2.71556C1.21333 76.7565 0 75.0809 0 73.0064C0 70.9319 1.21333 69.2563 2.71556 69.2563H23.2844C24.7867 69.2563 26 70.9319 26 73.0064C26 75.0809 24.7289 76.7565 23.2844 76.7565ZM2.65778 71.4106C2.02222 71.4106 1.56 72.1287 1.56 72.9266C1.56 73.8043 2.08 74.5224 2.65778 74.5224H23.2267C23.8622 74.5224 24.3822 73.8043 24.3822 73.0064C24.3822 72.2085 23.8622 71.4904 23.2267 71.4904L2.65778 71.4106Z" fill="#ED1B2F"/>
<path d="M23.2844 71.4903H2.71556C1.21333 71.4903 0 69.8148 0 67.7403C0 65.6658 1.21333 63.9902 2.71556 63.9902H23.2844C24.7867 63.9902 26 65.6658 26 67.7403C26 69.8148 24.7289 71.4903 23.2844 71.4903ZM2.65778 66.2243C2.02222 66.2243 1.56 66.9424 1.56 67.7403C1.56 68.618 2.08 69.3361 2.65778 69.3361H23.2267C23.8622 69.3361 24.3822 68.618 24.3822 67.8201C24.3822 67.0222 23.8622 66.3041 23.2267 66.3041L2.65778 66.2243Z" fill="#ED1B2F"/>
<path d="M23.2844 66.2242H2.71556C1.21333 66.2242 0 64.5487 0 62.4742C0 60.3997 1.21333 58.7241 2.71556 58.7241H23.2844C24.7867 58.7241 26 60.3997 26 62.4742C26 64.5487 24.7289 66.2242 23.2844 66.2242ZM2.65778 60.9582C2.02222 60.9582 1.56 61.6763 1.56 62.4742C1.56 63.3518 2.08 64.0699 2.65778 64.0699H23.2267C23.8622 64.0699 24.3822 63.3518 24.3822 62.554C24.3822 61.7561 23.8622 61.038 23.2267 61.038L2.65778 60.9582Z" fill="#ED1B2F"/>
<path d="M23.2844 61.0382H2.71556C1.21333 61.0382 0 59.3626 0 57.2881C0 55.2136 1.21333 53.5381 2.71556 53.5381H23.2844C24.7867 53.5381 26 55.2136 26 57.2881C26 59.3626 24.7289 61.0382 23.2844 61.0382ZM2.65778 55.6924C2.02222 55.6924 1.56 56.4105 1.56 57.2083C1.56 58.086 2.08 58.8041 2.65778 58.8041H23.2267C23.8622 58.8041 24.3822 58.086 24.3822 57.2881C24.3822 56.4903 23.8622 55.7722 23.2267 55.7722L2.65778 55.6924Z" fill="#ED1B2F"/>
<path d="M23.2844 55.7721H2.71556C1.21333 55.7721 0 54.0965 0 52.022C0 49.9475 1.21333 48.272 2.71556 48.272H23.2844C24.7867 48.272 26 49.9475 26 52.022C25.9422 54.0965 24.7289 55.7721 23.2844 55.7721ZM2.65778 50.506C2.02222 50.506 1.56 51.2241 1.56 52.1018C1.56 52.9795 2.08 53.6178 2.65778 53.6178H23.2267C23.8622 53.6178 24.3822 52.8997 24.3822 52.1018C24.3822 51.2241 23.8622 50.5858 23.2267 50.5858L2.65778 50.506Z" fill="#ED1B2F"/>
<path d="M23.2844 50.586H2.71556C1.21333 50.586 0 48.9105 0 46.836C0 44.7615 1.21333 43.0859 2.71556 43.0859H23.2844C24.7867 43.0859 26 44.7615 26 46.836C26 48.9105 24.7289 50.586 23.2844 50.586ZM2.65778 45.1604C2.02222 45.1604 1.56 45.8785 1.56 46.7562C1.56 47.6339 2.08 48.2722 2.65778 48.2722H23.2267C23.8622 48.2722 24.3822 47.5541 24.3822 46.7562C24.3822 45.9583 23.8622 45.2402 23.2267 45.2402L2.65778 45.1604Z" fill="#ED1B2F"/>
<path d="M5.83543 26.6491C5.77765 26.6491 5.77765 26.6491 5.71987 26.6491C3.00432 26.0108 0.924316 22.8192 0.924316 18.9096C0.924316 14.601 3.46654 11.0903 6.58654 11.0903H18.8932C22.0132 11.0903 24.5554 14.601 24.5554 18.9096C24.5554 22.6596 22.591 25.931 19.8177 26.6491C19.3554 26.7289 19.0088 26.4097 18.8354 25.7714C18.7777 25.1331 19.0088 24.6544 19.471 24.415C21.4354 23.9363 22.8221 21.6224 22.8221 18.9096C22.8221 15.7978 20.9732 13.2446 18.7199 13.2446H6.64432C4.39098 13.2446 2.5421 15.7978 2.5421 18.9096C2.5421 21.7022 3.98654 24.016 5.95098 24.415C6.41321 24.4948 6.7021 25.1331 6.58654 25.6118C6.52876 26.3299 6.23987 26.6491 5.83543 26.6491Z" fill="#ED1B2F"/>
<path d="M17.0442 26.8889H16.0042C15.542 26.8889 15.1953 26.3303 15.1953 25.7718C15.1953 25.2133 15.5998 24.6548 16.0042 24.6548H17.0442C17.5064 24.6548 17.8531 25.2133 17.8531 25.7718C17.8531 26.4101 17.5064 26.8889 17.0442 26.8889Z" fill="#ED1B2F"/>
<path d="M13.7512 26.8889H12.7112C12.249 26.8889 11.9023 26.3303 11.9023 25.7718C11.9023 25.2133 12.3068 24.6548 12.7112 24.6548H13.7512C14.2135 24.6548 14.5601 25.2133 14.5601 25.7718C14.5601 26.3303 14.1557 26.8889 13.7512 26.8889Z" fill="#ED1B2F"/>
<path d="M10.3422 26.8889H9.0711C8.60887 26.8889 8.26221 26.3303 8.26221 25.7718C8.26221 25.2133 8.66665 24.6548 9.0711 24.6548H10.3422C10.8044 24.6548 11.1511 25.2133 11.1511 25.7718C11.1511 26.3303 10.8044 26.8889 10.3422 26.8889Z" fill="#ED1B2F"/>
<path d="M19.1819 87.927H6.47084C3.75529 87.927 1.50195 84.8153 1.50195 81.0652V75.7992C1.50195 75.1609 1.9064 74.6821 2.31084 74.6821H23.4575C23.9197 74.6821 24.2664 75.2406 24.2664 75.7992V81.0652C24.2086 84.8153 21.9553 87.927 19.1819 87.927ZM3.11973 76.8364V81.0652C3.11973 83.6184 4.62195 85.6929 6.47084 85.6929H19.1819C21.0308 85.6929 22.5331 83.6184 22.5331 81.0652V76.8364H3.11973Z" fill="#ED1B2F"/>
<path d="M15.0225 37.1016C15.0225 38.857 13.9825 40.373 12.6536 40.373C11.3824 40.373 10.2847 38.9368 10.2847 37.1016C10.2847 35.3463 12.6536 30.3994 12.6536 30.3994C12.6536 30.3994 15.0225 35.3463 15.0225 37.1016Z" fill="#ED1B2F"/>
</g>
</svg>
