<svg width="54" height="86" viewBox="0 0 54 86" fill="none" xmlns="http://www.w3.org/2000/svg">
<path opacity="0.45" fill-rule="evenodd" clip-rule="evenodd" d="M29.112 6.20004L29.1012 6.2H12.8555L12.8441 6.20004L12.8318 6.2H11.6315L12.4399 14.5129H29.6171L30.3244 6.2H29.1248L29.112 6.20004ZM30.6276 1.26166V4.06004H31.739C32.0422 4.06004 32.4463 4.14234 32.6484 4.38926C32.8505 4.63618 33.0526 4.8831 32.9515 5.13002L32.1432 15.6652C32.1432 15.8079 32.106 15.9406 32.0393 16.0593C32.1758 18.2452 32.555 21.5315 33.0195 22.591C34.3147 25.0967 36.1935 27.4967 38.1884 30.0449L38.1884 30.045L38.1885 30.0451C38.6837 30.6776 39.186 31.3193 39.6883 31.9739L40.0468 32.428C44.5085 38.0774 49.5556 44.4681 52.0155 53.0443C54.5416 61.8511 52.3186 74.6086 50.702 81.3577C50.0957 83.9915 47.1655 85.9668 43.73 85.9668H8.66822C5.33381 85.9668 2.30254 83.9915 1.69628 81.2754C0.685854 76.7485 -0.930828 67.0364 0.685854 53.6205C1.43377 47.0712 7.37181 30.0231 8.65551 26.3377C8.75922 26.0399 8.83254 25.8294 8.87031 25.7187L10.7535 16.5877C10.2645 16.4472 9.89023 16.0876 9.81278 15.5829L9.00444 5.13002C9.00444 4.8831 9.10548 4.55387 9.30757 4.38926C9.50965 4.14234 9.91383 4.06004 10.217 4.06004H11.4295V1.26166C11.4295 0.685518 12.0357 0.109375 12.8441 0.109375H29.213C29.9203 0.109375 30.6276 0.603212 30.6276 1.26166ZM27.6974 4.06004H14.2587V2.33164H27.6974V4.06004ZM29.3894 16.6529H13.3523L11.3964 26.2125V26.2948C11.2953 26.4594 4.1213 46.9537 3.31296 53.8674C1.79732 67.0364 3.31296 76.4193 4.32339 80.9462C4.72756 82.6746 6.54632 83.8269 8.66822 83.8269H43.9321C46.054 83.8269 47.9738 82.5923 48.2769 80.9462C49.7926 74.3617 52.0155 62.098 49.5905 53.5382C47.1414 45.3191 42.318 39.1115 38.0667 33.6402L37.6675 33.1262C37.311 32.6683 36.9563 32.2164 36.6053 31.7692C34.3697 28.9206 32.2812 26.2596 30.7966 23.4141C29.9396 22.018 29.5632 18.4691 29.3894 16.6529ZM41.2039 55.9251H41.5071C42.6185 55.9251 43.3258 55.5958 43.8311 55.0197C44.4373 54.4435 44.6394 53.5382 44.4373 52.7974L42.7196 46.7891C41.8102 43.9907 40.4967 41.4392 38.5768 39.1346L35.0404 34.8547C34.232 33.867 33.0195 33.2908 31.5039 33.1262C29.9882 33.0439 28.4726 33.4554 27.4622 34.2785C25.6434 35.6777 25.5423 38.0646 27.159 39.7107L31.807 44.4022C32.8174 45.4722 33.8278 46.6245 34.5351 47.859L38.6779 54.4435C39.1831 55.3489 40.1935 55.8428 41.2039 55.9251ZM41.9112 53.6205C41.8102 53.7028 41.7092 53.7851 41.5071 53.7851C41.4503 53.7851 41.3617 53.7332 41.2592 53.6731C41.1791 53.6262 41.0905 53.5743 41.0019 53.5382L36.8591 46.9537C36.0508 45.6368 35.0404 44.4022 33.9289 43.1676L29.2809 38.4761C28.5736 37.6531 28.5736 36.5008 29.382 35.9246C29.8872 35.5131 30.6955 35.3485 31.3018 35.4308C32.1101 35.4308 32.6153 35.76 33.0195 36.1716L36.556 40.4515C38.3748 42.5091 39.5873 44.8137 40.2946 47.2829L42.0123 53.2913C42.0123 53.3877 41.9776 53.4559 41.9489 53.5124C41.9286 53.5523 41.9112 53.5864 41.9112 53.6205ZM7.28681 79.1234C8.70141 81.1811 10.3181 81.5926 11.6316 81.5926H36.7913C36.9934 81.5926 38.8121 81.428 40.3278 79.9465C41.9444 78.465 42.3486 76.1604 41.8434 73.0328C40.7319 66.6129 33.0527 52.95 29.2131 47.1063C28.3037 45.6248 26.2828 43.4025 26.1818 43.3202C23.6557 40.6864 21.2307 39.4518 18.8057 39.5341C16.6838 39.6164 14.6629 40.851 12.7431 43.0733C9.20662 47.5178 6.47847 54.4315 5.46805 62.1683C4.55866 69.4113 5.16492 75.9135 7.28681 79.1234ZM15.0671 44.2256C16.3807 42.4971 17.6942 41.6741 19.2098 41.6741C20.7255 41.6741 22.5443 42.7441 24.1609 44.6371C24.1609 44.6371 26.1818 46.7771 26.9901 48.094C30.6277 53.6908 38.3069 67.2713 39.4184 73.362C39.9236 75.8312 39.5194 77.5596 38.61 78.6296C37.933 79.25 37.1851 79.4085 37.0193 79.4437C36.9872 79.4505 36.9769 79.4527 36.9934 79.4527H11.6316C10.9243 79.4527 10.217 78.9588 9.61079 78.0535C5.67013 72.0451 7.89307 52.7854 15.0671 44.2256Z" fill="#ED1B2F"/>
</svg>
