<svg width="42" height="85" viewBox="0 0 42 85" fill="none" xmlns="http://www.w3.org/2000/svg">
<g opacity="0.45">
<path d="M39.7233 76.8826L40.5418 83.3819H1.56006L2.48089 76.8826V9.53351L1.56006 1.32812H40.5418L39.7233 9.53351V76.8826Z" fill="#F9EFD7"/>
<path d="M7.80131 83.3821C7.80131 83.3821 1.04857 83.9507 1.66246 81.5947C2.27634 79.2387 2.6856 54.2976 2.6856 42.4364C2.6856 30.5751 2.6856 8.47748 2.6856 8.47748C2.6856 8.47748 0.639314 1.49072 1.66246 1.49072C2.6856 1.49072 26.6271 1.49072 26.6271 1.49072C26.6271 1.49072 22.2276 7.66507 13.4286 12.3771C6.57354 16.1142 9.02908 37.8056 9.23371 56.0037C9.64297 76.964 7.80131 83.3821 7.80131 83.3821Z" fill="white"/>
<path d="M38.5981 77.2075H3.50433C2.17425 77.2075 1.25342 76.3138 1.25342 75.4202V9.53341C1.25342 8.47727 2.37888 7.74609 3.50433 7.74609H38.7004C40.0305 7.74609 40.9514 8.63975 40.9514 9.53341V75.3389C40.9514 76.3138 39.9282 77.2075 38.5981 77.2075ZM4.0159 75.014H38.2912V9.93961H4.0159V75.014Z" fill="#EB1E30"/>
<path d="M38.5981 9.93958H3.50427C2.27649 9.93958 1.25335 9.20841 1.04872 8.23351L0.0255787 2.38413C-0.0767356 1.81544 0.127891 1.24675 0.639463 0.840547C1.04872 0.353099 1.76492 0.109375 2.48112 0.109375H39.4166C40.1328 0.109375 40.849 0.353099 41.2582 0.840547C41.6675 1.328 41.9744 1.81544 41.8721 2.38413L40.9513 8.23351C40.849 9.20841 39.9281 9.93958 38.5981 9.93958ZM3.70889 7.66482H38.2911L39.1096 2.38413H2.99269L3.70889 7.66482Z" fill="#EB1E30"/>
<path d="M39.6213 84.4379H2.48123C1.76503 84.4379 1.04883 84.1941 0.639573 83.7067C0.230316 83.2192 -0.0766248 82.7318 0.0256895 82.1631L0.946519 76.6387C1.04883 75.6638 2.17429 74.9326 3.40206 74.9326H38.5982C39.8259 74.9326 40.8491 75.6638 41.0537 76.6387L41.9745 82.1631C42.0769 82.7318 41.8722 83.3005 41.3607 83.7067C40.8491 84.1941 40.2352 84.4379 39.6213 84.4379ZM2.9928 82.2443H39.3144L38.4958 77.1261H3.709L2.9928 82.2443Z" fill="#EB1E30"/>
<path d="M14.4519 65.0211C14.145 65.0211 13.838 64.9398 13.6334 64.8586C12.9172 64.5336 12.8149 63.8025 13.3264 63.315C13.3264 63.2338 14.4519 62.0152 14.4519 59.3342C14.4519 58.1968 14.145 57.7906 13.5311 57.2219C12.8149 56.4095 11.9964 55.5158 11.9964 53.2411C11.9964 51.7787 12.6102 51.0476 13.0195 50.3976C13.4288 49.7477 13.9403 49.179 13.9403 47.2292C13.9403 46.3356 13.6334 45.9294 13.1218 45.2794C12.5079 44.467 11.894 43.5734 11.894 41.7048C11.894 40.7299 12.5079 39.6738 13.0195 38.6989C13.4288 37.8865 13.9403 37.1553 13.9403 36.5866C13.9403 35.043 13.5311 34.3118 13.0195 33.4994C12.6102 32.6058 11.9964 31.7121 11.9964 29.8436C11.9964 28.1375 13.0195 26.9189 13.6334 26.1877C14.0426 25.619 14.4519 25.294 14.4519 24.9691C14.4519 22.3693 13.3264 20.9882 13.3264 20.9882C12.9172 20.4196 13.1218 19.7696 13.7357 19.5259C14.4519 19.2009 15.2704 19.3634 15.5774 19.7696C15.6797 19.8509 17.1121 21.7194 17.1121 25.0503C17.1121 26.1065 16.3959 26.8376 15.8843 27.4876C15.1681 28.2187 14.6565 28.8687 14.6565 29.9248C14.6565 31.3059 14.9635 31.9558 15.475 32.7682C16.0889 33.6619 16.6005 34.718 16.6005 36.6678C16.6005 37.6427 15.9866 38.6989 15.475 39.6738C15.0658 40.4862 14.5542 41.2174 14.5542 41.786C14.5542 43.0859 14.9635 43.5734 15.475 44.3045C16.0889 45.0357 16.6005 45.8481 16.6005 47.3105C16.6005 49.7477 15.8843 50.8038 15.3727 51.535C15.0658 52.1037 14.6565 52.4287 14.6565 53.2411C14.6565 54.7847 15.0658 55.3534 15.6797 56.0033C16.3959 56.7345 17.1121 57.5469 17.1121 59.4967C17.1121 62.9901 15.6797 64.6961 15.475 64.8586C15.3727 64.8586 14.8612 65.0211 14.4519 65.0211Z" fill="#EC1E31"/>
<path d="M20.6931 65.0211C20.3862 65.0211 20.0792 64.9398 19.8746 64.8586C19.1584 64.5336 19.0561 63.8025 19.5677 63.315C19.5677 63.2338 20.6931 62.0152 20.6931 59.3342C20.6931 58.1968 20.3862 57.7906 19.7723 57.2219C19.0561 56.4095 18.2376 55.5158 18.2376 53.2411C18.2376 51.7787 18.8515 51.0476 19.2607 50.3976C19.67 49.7477 20.1815 49.179 20.1815 47.2292C20.1815 46.3356 19.8746 45.9294 19.363 45.2794C18.7491 44.467 18.1353 43.5734 18.1353 41.7048C18.1353 40.7299 18.7491 39.6738 19.2607 38.6989C19.67 37.8865 20.1815 37.1553 20.1815 36.5866C20.1815 35.043 19.7723 34.3118 19.2607 33.4994C18.8515 32.6058 18.2376 31.7121 18.2376 29.8436C18.2376 28.1375 19.2607 26.9189 19.8746 26.1877C20.2839 25.619 20.6931 25.294 20.6931 24.9691C20.6931 22.3693 19.5677 20.9882 19.5677 20.9882C19.1584 20.4196 19.363 19.7696 19.9769 19.5259C20.6931 19.2009 21.5116 19.3634 21.8186 19.7696C21.9209 19.8509 23.3533 21.7194 23.3533 25.0503C23.3533 26.1065 22.6371 26.8376 22.1255 27.4876C21.4093 28.2187 20.8977 28.8687 20.8977 29.9248C20.8977 31.3059 21.2047 31.9558 21.7163 32.7682C22.3301 33.6619 22.8417 34.718 22.8417 36.6678C22.8417 37.6427 22.2278 38.6989 21.7163 39.6738C21.307 40.4862 20.7954 41.2174 20.7954 41.786C20.7954 43.0859 21.2047 43.5734 21.7163 44.3045C22.3301 45.0357 22.8417 45.8481 22.8417 47.3105C22.8417 49.7477 22.1255 50.8038 21.6139 51.535C21.307 52.1037 20.8977 52.4287 20.8977 53.2411C20.8977 54.7847 21.307 55.3534 21.9209 56.0033C22.6371 56.7345 23.3533 57.5469 23.3533 59.4967C23.3533 62.9901 21.9209 64.6961 21.7163 64.8586C21.6139 64.8586 21.2047 65.0211 20.6931 65.0211Z" fill="#EC1E31"/>
<path d="M26.4226 65.0211C26.1157 65.0211 25.8087 64.9398 25.6041 64.8586C24.8879 64.5336 24.7856 63.8025 25.2971 63.315C25.2971 63.2338 26.4226 62.0152 26.4226 59.3342C26.4226 58.1968 26.1157 57.7906 25.5018 57.2219C24.7856 56.4095 23.9671 55.5158 23.9671 53.2411C23.9671 51.7787 24.5809 51.0476 24.9902 50.3976C25.3995 49.7477 25.911 49.179 25.911 47.2292C25.911 46.3356 25.6041 45.9294 25.0925 45.2794C24.4786 44.467 23.8647 43.5734 23.8647 41.7048C23.8647 40.7299 24.4786 39.6738 24.9902 38.6989C25.3995 37.8865 25.911 37.1553 25.911 36.5866C25.911 35.043 25.5018 34.3118 24.9902 33.4994C24.5809 32.6058 23.9671 31.7121 23.9671 29.8436C23.9671 28.1375 24.9902 26.9189 25.6041 26.1877C26.0133 25.619 26.4226 25.294 26.4226 24.9691C26.4226 22.3693 25.2971 20.9882 25.2971 20.9882C24.8879 20.4196 25.0925 19.7696 25.7064 19.5259C26.4226 19.2009 27.2411 19.3634 27.5481 19.7696C27.6504 19.8509 29.0828 21.7194 29.0828 25.0503C29.0828 26.1065 28.3666 26.8376 27.855 27.4876C27.1388 28.2187 26.6272 28.8687 26.6272 29.9248C26.6272 31.3059 26.9342 31.9558 27.4457 32.7682C28.0596 33.6619 28.5712 34.718 28.5712 36.6678C28.5712 37.6427 27.9573 38.6989 27.4457 39.6738C27.0365 40.4862 26.5249 41.2174 26.5249 41.786C26.5249 43.0859 26.9342 43.5734 27.4457 44.3045C28.0596 45.0357 28.5712 45.8481 28.5712 47.3105C28.5712 49.7477 27.855 50.8038 27.3434 51.535C27.0365 52.1037 26.6272 52.4287 26.6272 53.2411C26.6272 54.7847 27.0365 55.3534 27.6504 56.0033C28.3666 56.7345 29.0828 57.5469 29.0828 59.4967C29.0828 62.9901 27.6504 64.6961 27.4457 64.8586C27.3434 64.8586 26.9342 65.0211 26.4226 65.0211Z" fill="#EC1E31"/>
<path d="M27.0363 69.408H14.3493C10.8707 69.408 8.00586 67.2145 8.00586 64.3711V19.2821C8.00586 16.5199 10.7683 14.2451 14.3493 14.2451H27.0363C30.515 14.2451 33.3798 16.4386 33.3798 19.2821V64.4523C33.2775 67.1333 30.4127 69.408 27.0363 69.408ZM14.3493 16.6011C12.5077 16.6011 10.8707 17.8197 10.8707 19.3633V64.5335C10.8707 65.9959 12.4054 67.2957 14.3493 67.2957H27.0363C28.878 67.2957 30.515 66.0771 30.515 64.5335V19.2821C30.515 17.8197 28.9803 16.5199 27.0363 16.5199C27.0363 16.6011 14.3493 16.6011 14.3493 16.6011Z" fill="#EC1E31"/>
</g>
</svg>
