<svg width="74" height="49" viewBox="0 0 74 49" fill="none" xmlns="http://www.w3.org/2000/svg">
<g opacity="0.45" filter="url(#filter0_d)">
<path d="M64.0681 2.94079L69.1281 2.21798L68.7435 39.3205L63.7007 38.3878L11.35 37.8049L4.96289 38.6104L5.34741 1.50786L11.7174 2.35793L64.0681 2.94079Z" fill="#F9EFD7"/>
<path d="M68.8047 33.3802C68.8047 33.3802 69.1801 39.8124 67.3548 39.2077C65.5296 38.603 46.1468 37.9976 36.927 37.895C27.7072 37.7923 10.5307 37.6011 10.5307 37.6011C10.5307 37.6011 5.07965 39.4883 5.08974 38.5144C5.09983 37.5406 5.33599 14.7533 5.33599 14.7533C5.33599 14.7533 10.0919 18.9941 13.6678 27.4097C16.505 33.9667 33.3901 31.8172 47.5375 31.78C63.834 31.5718 68.8047 33.3802 68.8047 33.3802Z" fill="white"/>
<path d="M64.3092 4.01477L63.963 37.4167C63.9499 38.6827 63.2461 39.5514 62.5515 39.5437L11.3375 38.9735C10.5166 38.9643 9.95934 37.8868 9.97045 36.8156L10.3176 3.31625C10.3307 2.05028 11.0345 1.18158 11.7291 1.18932L62.8799 1.75882C63.6377 1.76725 64.3223 2.74881 64.3092 4.01477ZM62.263 36.9109L62.6011 4.28793L12.0186 3.72476L11.6805 36.3477L62.263 36.9109Z" fill="#EB1E30"/>
<path d="M12.0218 3.43273L11.6756 36.8347C11.6635 38.0033 11.0851 38.9708 10.3253 39.1571L5.76843 40.0803C5.32538 40.1728 4.88535 39.9731 4.57465 39.4827C4.19979 39.0889 4.01741 38.4051 4.02447 37.7234L4.38881 2.5686C4.39587 1.88692 4.59238 1.20736 4.97532 0.822048C5.35825 0.436739 5.74017 0.148813 6.18121 0.251117L10.7189 1.17818C11.4756 1.284 12.0349 2.16676 12.0218 3.43273ZM9.90946 36.6203L10.2506 3.70518L6.15396 2.88043L5.7977 37.2562L9.90946 36.6203Z" fill="#EB1E30"/>
<path d="M69.9404 3.10366L69.574 38.4533C69.5669 39.1349 69.3704 39.8145 68.9875 40.1998C68.6046 40.5851 68.2226 40.8731 67.7816 40.7708L63.4965 39.8465C62.7398 39.7407 62.1825 38.6632 62.1946 37.4946L62.5418 3.99522C62.5539 2.82664 63.1324 1.85915 63.8922 1.67282L68.1954 0.844192C68.6384 0.751731 69.0785 0.951415 69.3892 1.44184C69.763 1.93297 69.9464 2.51937 69.9404 3.10366ZM67.874 37.9474L68.2323 3.37682L64.2458 4.11158L63.9027 37.2214L67.874 37.9474Z" fill="#EB1E30"/>
<path d="M58.1329 14.9513L58.0077 27.0266C57.9734 30.3376 56.2401 33.0453 54.0299 33.0207L18.9821 32.6305C16.8351 32.6066 15.0941 29.9576 15.1295 26.5492L15.2546 14.4739C15.2889 11.1629 17.0222 8.4552 19.2324 8.4798L54.3434 8.87072C56.4263 8.9913 58.1662 11.7377 58.1329 14.9513ZM16.9608 26.5696C16.9426 28.3225 17.8737 29.8912 19.0736 29.9045L54.1845 30.2954C55.3212 30.3081 56.3467 28.8586 56.3659 27.0084L56.491 14.933C56.5092 13.1801 55.5781 11.6115 54.3783 11.5981L19.2042 11.2065C18.0675 11.1938 17.042 12.6433 17.0228 14.4936C17.0859 14.4943 16.9608 26.5696 16.9608 26.5696Z" fill="#EC1E31"/>
</g>
<defs>
<filter id="filter0_d" x="0.0244141" y="0.230469" width="73.916" height="48.5611" filterUnits="userSpaceOnUse" color-interpolation-filters="sRGB">
<feFlood flood-opacity="0" result="BackgroundImageFix"/>
<feColorMatrix in="SourceAlpha" type="matrix" values="0 0 0 0 0 0 0 0 0 0 0 0 0 0 0 0 0 0 127 0"/>
<feOffset dy="4"/>
<feGaussianBlur stdDeviation="2"/>
<feColorMatrix type="matrix" values="0 0 0 0 0 0 0 0 0 0 0 0 0 0 0 0 0 0 0.25 0"/>
<feBlend mode="normal" in2="BackgroundImageFix" result="effect1_dropShadow"/>
<feBlend mode="normal" in="SourceGraphic" in2="effect1_dropShadow" result="shape"/>
</filter>
</defs>
</svg>
