<svg width="28" height="28" viewBox="0 0 28 28" fill="none" xmlns="http://www.w3.org/2000/svg">
<path d="M9.64718 28C10.7128 28 11.5766 27.1045 11.5766 26C11.5766 24.8954 10.7128 24 9.64718 24C8.5816 24 7.71777 24.8954 7.71777 26C7.71777 27.1045 8.5816 28 9.64718 28Z" fill="#FFFCFC"/>
<path d="M23.153 28C24.2186 28 25.0824 27.1045 25.0824 26C25.0824 24.8954 24.2186 24 23.153 24C22.0875 24 21.2236 24.8954 21.2236 26C21.2236 27.1045 22.0875 28 23.153 28Z" fill="#FFFCFC"/>
<path d="M27.0116 5.00017H5.61455L4.8235 0.800198C4.7784 0.570924 4.65716 0.365304 4.48089 0.21913C4.30463 0.0729561 4.08449 -0.00451446 3.8588 0.000203438H0V2.00019H3.06775L6.7529 21.2001C6.798 21.4293 6.91924 21.635 7.09551 21.7811C7.27177 21.9273 7.49191 22.0048 7.7176 22.0001H25.0822V20.0001H8.50865L7.7176 16.0001H25.0822C25.3052 16.0057 25.5232 15.9311 25.6991 15.7889C25.875 15.6467 25.9979 15.4457 26.0469 15.2201L27.9763 6.22016C28.0086 6.07179 28.0079 5.91772 27.9741 5.7697C27.9403 5.62167 27.8744 5.48358 27.7814 5.36594C27.6884 5.2483 27.5707 5.1542 27.4373 5.09082C27.3039 5.02744 27.1583 4.99643 27.0116 5.00017ZM24.3104 14.0001H7.35101L6.00043 7.00016H25.8057L24.3104 14.0001Z" fill="#FFFCFC"/>
</svg>
